<?xml version="1.0" encoding="utf-8"?><svg xmlns="http://www.w3.org/2000/svg" xmlns:xlink="http://www.w3.org/1999/xlink" width="1536" height="792" preserveAspectRatio="xMidYMid" viewBox="0 0 1536 792" style="z-index:1;margin-right:-2px;display:block;background-repeat-y:initial;background-repeat-x:initial;background-color:rgb(1, 44, 50);animation-play-state:paused" ><g transform="translate(768,396) scale(1,1) translate(-768,-396)" style="transform:matrix(1, 0, 0, 1, 0, 0);animation-play-state:paused" ><path d="M -100 477.67 C -71.37 471.73 -71.4 468.55 -44 468.55 S -15.92 476.27 12 476.27 S 41.11 474.71 68 474.71 S 96.23 463.17 124 463.17 S 152.2 465.13 180 465.13 S 209.87 459.69 236 459.69 S 265.72 475.3 292 475.3 S 321.57 472.55 348 472.55 S 376.04 463.55 404 463.55 S 432.55 467.08 460 467.08 S 489.41 477.97 516 477.97 S 544.06 474.53 572 474.53 S 600.52 461.42 628 461.42 S 656.07 477.96 684 477.96 S 713.8 469.26 740 469.26 S 768.92 475.73 796 475.73 S 824.73 478.34 852 478.34 S 881.45 476.73 908 476.73 S 936.96 470.95 964 470.95 S 992.57 463.74 1020 463.74 S 1048.46 463.64 1076 463.64 S 1105.76 473.95 1132 473.95 S 1161.36 471.72 1188 471.72 S 1216.19 476.11 1244 476.11 S 1273.15 467.49 1300 467.49 S 1328.82 479.07 1356 479.07 S 1384.74 469.82 1412 469.82 S 1440.86 467.81 1468 467.81 S 1497.43 464.88 1524 464.88 S 1553.26 465.85 1580 465.85 S 1609.21 473 1636 473 S 1665.79 478.32 1692 478.32 L 1636 792 L -100 792 Z" fill="#0f3135" stroke-width="0" transform="matrix(1,0,0,1,0,0)" style="transform:matrix(1, 0, 0, 1, 0, 0);animation-play-state:paused" ></path>
<path d="M -100 481.12 C -69.45 482.31 -69.51 499.26 -42.52 499.26 S -13.53 495.52 14.97 495.52 S 45.17 486.25 72.45 486.25 S 102.09 486.4 129.93 486.4 S 160.49 501.16 187.42 501.16 S 217.04 485.76 244.9 485.76 S 274.16 498.57 302.38 498.57 S 331.85 490.56 359.87 490.56 S 389.18 489.89 417.35 489.89 S 446.27 491.57 474.83 491.57 S 504.15 490.45 532.32 490.45 S 561.11 485.34 589.8 485.34 S 618.68 483.42 647.28 483.42 S 677.72 489.59 704.77 489.59 S 734.75 489.12 762.25 489.12 S 792.43 497 819.74 497 S 849.69 486.2 877.22 486.2 S 906.61 492.32 934.7 492.32 S 964.82 487.7 992.19 487.7 S 1021.93 490.84 1049.67 490.84 S 1079.11 492.57 1107.15 492.57 S 1136.58 481.66 1164.64 481.66 S 1195.29 493.73 1222.12 493.73 S 1251.27 494.36 1279.6 494.36 S 1309.22 484.79 1337.09 484.79 S 1367.29 497.12 1394.57 497.12 S 1423.94 495.04 1452.05 495.04 S 1481.24 493.89 1509.54 493.89 S 1538.36 498.48 1567.02 498.48 S 1596.09 497.87 1624.5 497.87 S 1654.28 493.09 1681.99 493.09 L 1636 792 L -100 792 Z" fill="#254346" stroke-width="0" transform="matrix(1,0,0,1,1.1340199708938599,0)" style="transform:matrix(1, 0, 0, 1, 1.13402, 0);animation-play-state:paused" ></path>
<path d="M -100 502.72 C -70.26 504.99 -70.44 516.2 -40.95 516.2 S -11.33 510.45 18.1 510.45 S 48.3 507.28 77.14 507.28 S 107.58 517.73 136.19 517.73 S 167.34 504.72 195.24 504.72 S 224.87 515.45 254.29 515.45 S 284.13 518.46 313.33 518.46 S 343.29 516.49 372.38 516.49 S 403.3 526.12 431.43 526.12 S 462.82 517.11 490.48 517.11 S 521.48 520.43 549.52 520.43 S 580.33 517.21 608.57 517.21 S 638.87 524.24 667.62 524.24 S 698.5 511.01 726.67 511.01 S 757.69 507.86 785.71 507.86 S 816.7 515.97 844.76 515.97 S 875.64 523.45 903.81 523.45 S 934.5 512.06 962.86 512.06 S 993.24 512.63 1021.9 512.63 S 1053.03 516.34 1080.95 516.34 S 1112.13 520.29 1140 520.29 S 1170.16 509.52 1199.05 509.52 S 1229.94 523.32 1258.1 523.32 S 1288.32 524.99 1317.14 524.99 S 1346.73 517.65 1376.19 517.65 S 1406.9 500.87 1435.24 500.87 S 1465.52 522.82 1494.29 522.82 S 1524.99 503.71 1553.33 503.71 S 1584.03 507.36 1612.38 507.36 S 1641.95 500.13 1671.43 500.13 L 1636 792 L -100 792 Z" fill="#3b5658" stroke-width="0" transform="matrix(1,0,0,1,3.5863146781921387,0)" style="transform:matrix(1, 0, 0, 1, 3.58631, 0);animation-play-state:paused" ></path>
<path d="M -100 526.93 C -67.83 530.84 -68.68 539.05 -39.3 539.05 S -8.54 529.66 21.4 529.66 S 52.92 536.54 82.1 536.54 S 113.41 528 142.8 528 S 173.81 535.74 203.5 535.74 S 235.52 527 264.2 527 S 295.76 536.54 324.9 536.54 S 355.34 527.63 385.59 527.63 S 416.16 546.6 446.29 546.6 S 478.39 523.59 506.99 523.59 S 538.06 540.57 567.69 540.57 S 598.69 527.46 628.39 527.46 S 659.29 539.37 689.09 539.37 S 721.33 520 749.79 520 S 780.4 538.99 810.49 538.99 S 841.64 538.33 871.19 538.33 S 903.32 532.71 931.89 532.71 S 962.81 532.96 992.59 532.96 S 1024.35 539.79 1053.29 539.79 S 1083.65 521.62 1113.99 521.62 S 1144.9 537.79 1174.69 537.79 S 1206.91 522.31 1235.38 522.31 S 1265.88 547.37 1296.08 547.37 S 1327.24 529.62 1356.78 529.62 S 1387.43 549.89 1417.48 549.89 S 1449.63 530.94 1478.18 530.94 S 1509.83 545.78 1538.88 545.78 S 1569.5 524.55 1599.58 524.55 S 1630.27 521.57 1660.28 521.57 L 1636 792 L -100 792 Z" fill="#51696b" stroke-width="0" transform="matrix(1,0,0,1,6.4136857986450195,0)" style="transform:matrix(1, 0, 0, 1, 6.41369, 0);animation-play-state:paused" ></path>
<path d="M -100 545.94 C -67.97 552.76 -67.67 558.08 -37.55 558.08 S -4.42 546.82 24.89 546.82 S 57.83 562.01 87.34 562.01 S 119.25 538.86 149.78 538.86 S 181.25 571.64 212.23 571.64 S 243.7 546.23 274.68 546.23 S 306.71 568.33 337.12 568.33 S 370.18 538.69 399.57 538.69 S 430.83 566.8 462.01 566.8 S 494.36 539.04 524.46 539.04 S 556.79 565.12 586.91 565.12 S 619.39 556.38 649.35 556.38 S 680.89 561.42 711.8 561.42 S 744.11 544.78 774.24 544.78 S 807.25 572.16 836.69 572.16 S 868.9 539.42 899.14 539.42 S 932 563.58 961.58 563.58 S 994.56 556.39 1024.03 556.39 S 1055.31 556.91 1086.47 556.91 S 1119.15 551.36 1148.92 551.36 S 1180.7 541.27 1211.37 541.27 S 1243.99 556.23 1273.81 556.23 S 1306 554.68 1336.26 554.68 S 1368.29 549.08 1398.71 549.08 S 1431.09 568.16 1461.15 568.16 S 1494.28 551.4 1523.6 551.4 S 1555.42 573.26 1586.04 573.26 S 1617.74 555.98 1648.49 555.98 L 1636 792 L -100 792 Z" fill="#677d7f" stroke-width="0" transform="matrix(1,0,0,1,8.86598014831543,0)" style="transform:matrix(1, 0, 0, 1, 8.86598, 0);animation-play-state:paused" ></path>
<path d="M -100 559.23 C -66.47 569.75 -67.25 583.37 -35.7 583.37 S -2.74 584.81 28.59 584.81 S 61.93 564.68 92.89 564.68 S 125.58 572.39 157.19 572.39 S 190.96 596.42 221.48 596.42 S 254.23 568.63 285.78 568.63 S 318.7 595.68 350.07 595.68 S 384.08 567.08 414.37 567.08 S 448.39 592.76 478.67 592.76 S 512.7 566.08 542.96 566.08 S 576.15 583.19 607.26 583.19 S 640.75 571.53 671.56 571.53 S 704.54 582.89 735.85 582.89 S 768.57 574.24 800.15 574.24 S 833.18 579.89 864.44 579.89 S 897.86 596.49 928.74 596.49 S 961.96 593.5 993.04 593.5 S 1025.77 569.61 1057.33 569.61 S 1089.83 591.12 1121.63 591.12 S 1155.39 575.84 1185.93 575.84 S 1219.79 578.59 1250.22 578.59 S 1283.66 578.4 1314.52 578.4 S 1347.17 588.56 1378.81 588.56 S 1411.66 575.95 1443.11 575.95 S 1475.76 581.81 1507.41 581.81 S 1539.83 571.38 1571.7 571.38 S 1605.47 587.74 1636 587.74 S 1668.82 562.97 1700.3 562.97 L 1636 792 L -100 792 Z" fill="#7e9193" stroke-width="0" transform="matrix(1,0,0,1,10,0)" style="transform:matrix(1, 0, 0, 1, 10, 0);animation-play-state:paused" ></path>
<path d="M -100 595.6 C -65.71 592.19 -65.5 606.76 -33.74 606.76 S 0.24 611.48 32.52 611.48 S 67.46 615.56 98.78 615.56 S 132.12 584.52 165.04 584.52 S 199.15 609.76 231.3 609.76 S 265.11 579.63 297.56 579.63 S 331.11 581.5 363.82 581.5 S 397.93 610.73 430.08 610.73 S 464.5 610.65 496.34 610.65 S 530.65 595.72 562.6 595.72 S 597.36 606.48 628.85 606.48 S 661.99 584.41 695.11 584.41 S 729.51 610.05 761.37 610.05 S 795.13 584.59 827.63 584.59 S 862.06 603.06 893.89 603.06 S 927.82 594.38 960.15 594.38 S 994.52 614.27 1026.41 614.27 S 1060.31 591.6 1092.67 591.6 S 1126.31 609.51 1158.93 609.51 S 1193.85 592.62 1225.19 592.62 S 1260.21 581.52 1291.45 581.52 S 1325.14 585.14 1357.71 585.14 S 1391.4 614.64 1423.97 614.64 S 1457.68 588.03 1490.23 588.03 S 1524.57 605.17 1556.49 605.17 S 1589.93 593.99 1622.75 593.99 S 1655.92 613.03 1689.01 613.03 L 1636 792 L -100 792 Z" fill="#95a6a7" stroke-width="0" transform="matrix(1,0,0,1,8.86598014831543,0)" style="transform:matrix(1, 0, 0, 1, 8.86598, 0);animation-play-state:paused" ></path>
<path d="M -100 613.23 C -64.29 598.67 -64.95 605.22 -31.65 605.22 S 4.41 604.91 36.69 604.91 S 71.88 638.65 105.04 638.65 S 140.9 636.23 173.39 636.23 S 208.65 626.36 241.73 626.36 S 276.56 607.82 310.08 607.82 S 345.73 640.19 378.43 640.19 S 413.17 614.54 446.77 614.54 S 482.62 643.16 515.12 643.16 S 550.22 601.49 583.46 601.49 S 617.78 635.49 651.81 635.49 S 687.6 602.65 720.16 602.65 S 755.8 625.73 788.5 625.73 S 823.61 615.91 856.85 615.91 S 892.1 632.3 925.2 632.3 S 959.67 630.88 993.54 630.88 S 1028.41 628.75 1061.89 628.75 S 1098.01 600.19 1130.24 600.19 S 1165.16 644.77 1198.58 644.77 S 1234.49 616.59 1266.93 616.59 S 1301.35 629.34 1335.28 629.34 S 1371.1 617.27 1403.62 617.27 S 1438.77 636.25 1471.97 636.25 S 1506.58 611.52 1540.31 611.52 S 1576.24 599.71 1608.66 599.71 S 1643.78 609.9 1677.01 609.9 L 1636 792 L -100 792 Z" fill="#adbcbc" stroke-width="0" transform="matrix(1,0,0,1,6.4136857986450195,0)" style="transform:matrix(1, 0, 0, 1, 6.41369, 0);animation-play-state:paused" ></path>
<path d="M -100 655.76 C -62.93 661.94 -63.2 655.39 -29.43 655.39 S 7.5 628.86 41.14 628.86 S 78.07 666.78 111.71 666.78 S 147.47 634.56 182.28 634.56 S 217.64 664.28 252.85 664.28 S 288.48 632.91 323.41 632.91 S 360.45 669.05 393.98 669.05 S 431.04 622.12 464.55 622.12 S 500.54 660.96 535.12 660.96 S 571.7 632.96 605.69 632.96 S 641.12 668.49 676.26 668.49 S 711.7 630.26 746.83 630.26 S 783.2 652.05 817.4 652.05 S 854.39 628.98 887.97 628.98 S 923.9 663.42 958.54 663.42 S 995.22 634.49 1029.11 634.49 S 1064.96 666.6 1099.67 666.6 S 1136.4 632.6 1170.24 632.6 S 1206.62 660.06 1240.81 660.06 S 1276.59 637.16 1311.38 637.16 S 1348.36 664.15 1381.95 664.15 S 1418.96 624.28 1452.52 624.28 S 1488.78 650.4 1523.09 650.4 S 1558.44 621.51 1593.66 621.51 S 1629.13 622.69 1664.23 622.69 L 1636 792 L -100 792 Z" fill="#c6d2d2" stroke-width="0" transform="matrix(1,0,0,1,3.5863142013549805,0)" style="transform:matrix(1, 0, 0, 1, 3.58631, 0);animation-play-state:paused" ></path>
<path d="M -100 647.42 C -62.23 655.34 -62.45 683.37 -27.06 683.37 S 10.79 640.1 45.88 640.1 S 83.37 675.7 118.82 675.7 S 156.29 648.66 191.76 648.66 S 228.67 650.64 264.71 650.64 S 302.64 656.43 337.65 656.43 S 375.61 654.28 410.59 654.28 S 448.63 653.95 483.53 653.95 S 520.38 647.65 556.47 647.65 S 593.38 638.47 629.41 638.47 S 666.62 683.59 702.35 683.59 S 739.07 647.1 775.29 647.1 S 811.94 690.81 848.24 690.81 S 885.83 642.57 921.18 642.57 S 959.62 685.66 994.12 685.66 S 1032.56 690.07 1067.06 690.07 S 1104.74 680.83 1140 680.83 S 1178.4 691.01 1212.94 691.01 S 1251.11 688.45 1285.88 688.45 S 1324.15 680.55 1358.82 680.55 S 1396.67 652.57 1431.76 652.57 S 1468.58 650.75 1504.71 650.75 S 1542.51 645.74 1577.65 645.74 S 1615.68 682.25 1650.59 682.25 L 1636 792 L -100 792 Z" fill="#dfe8e8" stroke-width="0" transform="matrix(1,0,0,1,1.1340198516845703,0)" style="transform:matrix(1, 0, 0, 1, 1.13402, 0);animation-play-state:paused" ></path></g></svg>